<mxfile host="app.diagrams.net" modified="2023-06-12T01:34:40.331Z" agent="Mozilla/5.0 (Windows NT 10.0; Win64; x64) AppleWebKit/537.36 (KHTML, like Gecko) Chrome/114.0.0.0 Safari/537.36" version="21.3.8" etag="VNEpXq5gjSb0amjpM3Xc" type="github">
  <diagram name="Page-1" id="j_EgNA7H6V2sFlCKsMtP">
    <mxGraphModel>
      <root>
        <mxCell id="0" />
        <mxCell id="1" parent="0" />
      </root>
    </mxGraphModel>
  </diagram>
</mxfile>
